<svg id="Layer_1" data-name="Layer 1" xmlns="http://www.w3.org/2000/svg" xmlns:xlink="http://www.w3.org/1999/xlink" viewBox="0 0 1920 1920"><defs><style>.cls-1{fill:url(#linear-gradient);}</style><linearGradient id="linear-gradient" x1="235.05" y1="1612.03" x2="1359.62" y2="487.47" gradientUnits="userSpaceOnUse"><stop offset="0" stop-color="#005589"/><stop offset="0.5" stop-color="#00c2f0"/><stop offset="1" stop-color="#2ceeb8"/></linearGradient></defs><path class="cls-1" d="M762.9,43.31s304,346.48,312.43,360.9c0,0-82.91-11.22-123-5.21,0,0-173-213.5-187.46-212.7S359.13,640.4,274.75,847.62c0,0,247.81-220,448.62-243.53,0,0,102.55-158.09,310.84-158.62s605.64,154.34,747.7,626.47c-18-15.09-46.71-35.08-85.76-45.9-62.23-17.24-116.44-1.67-175.4,18.66-156,53.78-186.38,86.13-305,126.57-95.81,32.69-143.71,49-211.37,44.54-17.91-1.18-176.42-14-264.52-131.54-66.13-88.26-87-228.1-87-228.1-56.4,35.27-174.47,119.68-258.5,275.58-88.12,163.51-123.9,292.68-87.59,382.4s105.5,179.92,286.27,241.4c228.38,77.69,421.61-39.2,447.62-55.54A677.57,677.57,0,0,0,1219,1516.29c82.55-126.19,102.25-249.23,107.88-313L1423,1163.8c-1.45,68.79-13.72,212.52-101.47,365.31-91.81,159.84-217.17,244.15-276.65,279.05-36.41,18.22-246.82,119.19-492.42,30.71-212.82-76.67-282-192.27-335.4-288.4s-26.36-458.29,274.14-711c294.91-248,779.13-241.37,1138,53-253.62-233.84-611.82-311.82-929.3-200.82C272.83,841,140.4,1255,127.35,1298.38a686.63,686.63,0,0,1-19.84-166.55c.88-177.7,72.33-315,163-459.38C365.22,521.55,521.54,298.3,762.9,43.31Z"/></svg>